<svg xmlns="http://www.w3.org/2000/svg" version="1.1" xmlns:xlink="http://www.w3.org/1999/xlink" width="512" height="512" x="0" y="0" viewBox="0 0 64 64" style="enable-background:new 0 0 512 512" xml:space="preserve" class=""><g><rect width="27" height="27" x="2.644" y="3" fill="#000000" rx="1" opacity="1" data-original="#ef5451" class=""></rect><path fill="#000000" d="M18.778 35.5a1.04 1.04 0 0 0-1.733 0L3.19 59.5a1 1 0 0 0 .866 1.5h27.713a1 1 0 0 0 .866-1.5z" opacity="1" data-original="#44b3e6" class=""></path><circle cx="47.144" cy="16.5" r="13.5" fill="#000000" opacity="1" data-original="#feed58" class=""></circle><path fill="#000000" d="m61.223 47.5-6.929-12a1 1 0 0 0-.866-.5H39.572a1 1 0 0 0-.866.5l-6.929 12a1.002 1.002 0 0 0 0 1l6.929 12a1 1 0 0 0 .866.5h13.856a1 1 0 0 0 .866-.5l6.929-12a1.002 1.002 0 0 0 0-1z" opacity="1" data-original="#66bb6a" class=""></path></g></svg>