<svg xmlns="http://www.w3.org/2000/svg" version="1.1" xmlns:xlink="http://www.w3.org/1999/xlink" width="512" height="512" x="0" y="0" viewBox="0 0 512 512" style="enable-background:new 0 0 512 512" xml:space="preserve" class=""><g><path d="m500.618 496.978-88.113-176.227c54.663-29.603 89.444-86.816 89.444-150.098C501.949 76.555 425.394 0 331.296 0c-75.3 0-141.297 49.163-163.147 120.49H20.031c-5.523 0-10 4.477-10 10v281.143c0 5.523 4.477 10 10 10h219.778l-37.947 75.895c-3.317 6.636 1.512 14.472 8.944 14.472h281.163c5.523 0 10-4.477 10-10a9.95 9.95 0 0 0-1.351-5.022zM331.296 20c83.07 0 150.653 67.582 150.653 150.653 0 55.074-30.475 105.937-78.393 132.2l-43.234-86.468a10 10 0 0 0-17.888 0l-31.26 62.52V130.49c0-5.523-4.477-10-10-10H189.196C210.217 60.716 266.903 20 331.296 20zM30.031 401.633V140.49h261.143v178.415l-41.364 82.729H30.031zM226.987 492l124.391-248.782L475.769 492z" fill="#000000" opacity="1" data-original="#000000" class=""></path></g></svg>




